# xmcd
#
# Track frame offsets:
#	182
#	20007
#	72560
#
# Disc length: 1502 seconds
#
# Revision: 3
# Processed by: cddbd v1.5.1PL0 Copyright (c) Steve Scherf et al.
# Submitted via: audiograbber 1.83.01
#
DISCID=2605dc03
DTITLE=Janet Jackson and Luther Vandross - The Best Things In Life Are Free
DYEAR=1996
DGENRE=R&B
TTITLE0=The Best Things In Life Are Free (K Klass 7'' Edit)
TTITLE1=The Best Things In Life Are Free (S-Man Salsoul Vibe)
TTITLE2=The Best Things In Life Are Free (K Klass 12'' Edit)
EXTD=
EXTT0=
EXTT1=
EXTT2=
PLAYORDER=
